{
    "asset": {
        "version": "2.0",
        "generator": "Open Asset Import Library (assimp v5.0.5eb040c7)"
    },
    "accessors": [
        {
            "bufferView": 0,
            "byteOffset": 0,
            "componentType": 5126,
            "count": 693,
            "type": "VEC3",
            "max": [
                1.2217717170715333,
                1.165095329284668,
                3.084787368774414
            ],
            "min": [
                -1.148742437362671,
                -1.1487441062927247,
                -1.0000001192092896
            ]
        },
        {
            "bufferView": 1,
            "byteOffset": 0,
            "componentType": 5126,
            "count": 693,
            "type": "VEC3",
            "max": [
                1.0,
                1.0,
                1.0
            ],
            "min": [
                -1.0,
                -1.0,
                -1.0
            ]
        },
        {
            "bufferView": 2,
            "byteOffset": 0,
            "componentType": 5125,
            "count": 1434,
            "type": "SCALAR",
            "max": [
                692
            ],
            "min": [
                0
            ]
        }
    ],
    "buffers": [
        {
            "byteLength": 22368,
            "uri": "result.bin"
        }
    ],
    "bufferViews": [
        {
            "buffer": 0,
            "byteOffset": 0,
            "byteLength": 8316,
            "target": 34962
        },
        {
            "buffer": 0,
            "byteOffset": 8316,
            "byteLength": 8316,
            "target": 34962
        },
        {
            "buffer": 0,
            "byteOffset": 16632,
            "byteLength": 5736,
            "target": 34963
        }
    ],
    "materials": [
        {
            "name": "cottage_texture",
            "pbrMetallicRoughness": {
                "baseColorFactor": [
                    0.800000011920929,
                    0.800000011920929,
                    0.800000011920929,
                    1.0
                ],
                "metallicFactor": 0.0,
                "roughnessFactor": 0.9717157483100891
            }
        }
    ],
    "meshes": [
        {
            "name": "Cube.002",
            "primitives": [
                {
                    "mode": 4,
                    "material": 0,
                    "indices": 2,
                    "attributes": {
                        "POSITION": 0,
                        "NORMAL": 1
                    }
                }
            ]
        }
    ],
    "nodes": [
        {
            "name": "RootNode",
            "children": [
                1,
                2,
                3
            ]
        },
        {
            "name": "Cube",
            "matrix": [
                -1422.8292236328126,
                0.0,
                101.65808868408203,
                0.0,
                57.46847915649414,
                0.00015701031952630728,
                804.3416137695313,
                0.0,
                -0.000004984678071195958,
                359.2292175292969,
                -0.0000697666619089432,
                0.0,
                -166.02523803710938,
                365.640869140625,
                2.4180448055267336,
                1.0
            ],
            "mesh": 0
        },
        {
            "name": "Lamp",
            "matrix": [
                -29.086467742919923,
                -5.518903732299805,
                -95.51712036132813,
                0.0,
                56.639312744140628,
                79.46723937988281,
                -21.839115142822267,
                0.0,
                77.11009979248047,
                -60.45246887207031,
                -19.988338470458986,
                0.0,
                407.6245422363281,
                590.38623046875,
                -100.54539489746094,
                1.0
            ]
        },
        {
            "name": "Camera",
            "matrix": [
                -65.15583038330078,
                -44.527137756347659,
                -61.417030334472659,
                0.0,
                -32.401336669921878,
                89.5395736694336,
                -30.542089462280275,
                0.0,
                68.59205627441406,
                -0.000011920928045583424,
                -72.76763916015625,
                0.0,
                748.1131591796875,
                534.3665161132813,
                650.7639770507813,
                1.0
            ]
        }
    ],
    "scenes": [
        {
            "nodes": [
                0
            ]
        }
    ],
    "scene": 0
}